<mxfile host="app.diagrams.net" modified="2023-12-25T02:58:47.237Z" agent="Mozilla/5.0 (Windows NT 10.0; Win64; x64) AppleWebKit/537.36 (KHTML, like Gecko) Chrome/117.0.0.0 Safari/537.36 Edg/117.0.2045.31" etag="bUUuIwzc03oAdm1vdfMk" version="22.1.11" type="device">
  <diagram name="第 1 页" id="92N2KzFTYWAbJneSnz49">
    <mxGraphModel dx="927" dy="722" grid="1" gridSize="10" guides="1" tooltips="1" connect="1" arrows="1" fold="1" page="1" pageScale="1" pageWidth="827" pageHeight="1169" math="0" shadow="0">
      <root>
        <mxCell id="0" />
        <mxCell id="1" parent="0" />
        <mxCell id="BCBaqyGgsaxiyXWX2teA-17" value="营业员" style="rounded=0;whiteSpace=wrap;html=1;fontSize=14;fontStyle=1" parent="1" vertex="1">
          <mxGeometry x="110" y="160" width="120" height="40" as="geometry" />
        </mxCell>
        <mxCell id="BCBaqyGgsaxiyXWX2teA-18" value="订单管理" style="rhombus;whiteSpace=wrap;html=1;fontSize=14;fontStyle=1" parent="1" vertex="1">
          <mxGeometry x="80" y="250" width="180" height="60" as="geometry" />
        </mxCell>
        <mxCell id="BCBaqyGgsaxiyXWX2teA-19" value="门票" style="rounded=0;whiteSpace=wrap;html=1;fontSize=14;fontStyle=1" parent="1" vertex="1">
          <mxGeometry x="110" y="350" width="120" height="40" as="geometry" />
        </mxCell>
        <mxCell id="BCBaqyGgsaxiyXWX2teA-20" value="购买" style="rhombus;whiteSpace=wrap;html=1;fontSize=14;fontStyle=1" parent="1" vertex="1">
          <mxGeometry x="300" y="340" width="170" height="60" as="geometry" />
        </mxCell>
        <mxCell id="BCBaqyGgsaxiyXWX2teA-21" value="用户" style="rounded=0;whiteSpace=wrap;html=1;fontSize=14;fontStyle=1;labelBorderColor=none;" parent="1" vertex="1">
          <mxGeometry x="540" y="350" width="120" height="40" as="geometry" />
        </mxCell>
        <mxCell id="BCBaqyGgsaxiyXWX2teA-23" value="" style="endArrow=none;html=1;rounded=0;entryX=0.5;entryY=1;entryDx=0;entryDy=0;exitX=0.5;exitY=0;exitDx=0;exitDy=0;" parent="1" source="BCBaqyGgsaxiyXWX2teA-18" target="BCBaqyGgsaxiyXWX2teA-17" edge="1">
          <mxGeometry width="50" height="50" relative="1" as="geometry">
            <mxPoint x="450" y="270" as="sourcePoint" />
            <mxPoint x="500" y="220" as="targetPoint" />
          </mxGeometry>
        </mxCell>
        <mxCell id="BCBaqyGgsaxiyXWX2teA-25" value="" style="endArrow=none;html=1;rounded=0;entryX=0.5;entryY=1;entryDx=0;entryDy=0;exitX=0.5;exitY=0;exitDx=0;exitDy=0;" parent="1" source="BCBaqyGgsaxiyXWX2teA-19" target="BCBaqyGgsaxiyXWX2teA-18" edge="1">
          <mxGeometry width="50" height="50" relative="1" as="geometry">
            <mxPoint x="450" y="270" as="sourcePoint" />
            <mxPoint x="500" y="220" as="targetPoint" />
          </mxGeometry>
        </mxCell>
        <mxCell id="BCBaqyGgsaxiyXWX2teA-26" value="" style="endArrow=none;html=1;rounded=0;entryX=1;entryY=0.5;entryDx=0;entryDy=0;exitX=0;exitY=0.5;exitDx=0;exitDy=0;" parent="1" source="BCBaqyGgsaxiyXWX2teA-20" target="BCBaqyGgsaxiyXWX2teA-19" edge="1">
          <mxGeometry width="50" height="50" relative="1" as="geometry">
            <mxPoint x="450" y="270" as="sourcePoint" />
            <mxPoint x="500" y="220" as="targetPoint" />
          </mxGeometry>
        </mxCell>
        <mxCell id="BCBaqyGgsaxiyXWX2teA-27" value="" style="endArrow=none;html=1;rounded=0;entryX=1;entryY=0.5;entryDx=0;entryDy=0;exitX=0;exitY=0.5;exitDx=0;exitDy=0;" parent="1" source="BCBaqyGgsaxiyXWX2teA-21" target="BCBaqyGgsaxiyXWX2teA-20" edge="1">
          <mxGeometry width="50" height="50" relative="1" as="geometry">
            <mxPoint x="450" y="270" as="sourcePoint" />
            <mxPoint x="500" y="220" as="targetPoint" />
          </mxGeometry>
        </mxCell>
        <mxCell id="BCBaqyGgsaxiyXWX2teA-29" value="&lt;h1 style=&quot;font-size: 13px;&quot;&gt;&lt;span style=&quot;font-size: 13px;&quot;&gt;N&lt;/span&gt;&lt;/h1&gt;" style="text;html=1;strokeColor=none;fillColor=none;spacing=5;spacingTop=-20;whiteSpace=wrap;overflow=hidden;rounded=0;fontStyle=1;fontSize=13;" parent="1" vertex="1">
          <mxGeometry x="150" y="220" width="20" height="40" as="geometry" />
        </mxCell>
        <mxCell id="BCBaqyGgsaxiyXWX2teA-30" value="&lt;font style=&quot;font-size: 13px;&quot;&gt;&lt;b&gt;M&lt;/b&gt;&lt;/font&gt;" style="text;html=1;strokeColor=none;fillColor=none;align=center;verticalAlign=middle;whiteSpace=wrap;rounded=0;" parent="1" vertex="1">
          <mxGeometry x="130" y="320" width="60" height="30" as="geometry" />
        </mxCell>
        <mxCell id="BCBaqyGgsaxiyXWX2teA-32" value="&lt;font style=&quot;font-size: 13px;&quot;&gt;M&lt;/font&gt;" style="text;html=1;strokeColor=none;fillColor=none;align=center;verticalAlign=middle;whiteSpace=wrap;rounded=0;fontStyle=1" parent="1" vertex="1">
          <mxGeometry x="240" y="340" width="50" height="30" as="geometry" />
        </mxCell>
        <mxCell id="BCBaqyGgsaxiyXWX2teA-34" value="P" style="text;html=1;strokeColor=none;fillColor=none;align=center;verticalAlign=middle;whiteSpace=wrap;rounded=0;fontSize=13;fontStyle=1" parent="1" vertex="1">
          <mxGeometry x="480" y="340" width="60" height="30" as="geometry" />
        </mxCell>
        <mxCell id="TztJXBnF4DbwRnY7P1fa-1" value="购买日期" style="ellipse;whiteSpace=wrap;html=1;" parent="1" vertex="1">
          <mxGeometry x="332.5" y="430" width="105" height="60" as="geometry" />
        </mxCell>
        <mxCell id="TztJXBnF4DbwRnY7P1fa-2" value="购买数量" style="ellipse;whiteSpace=wrap;html=1;" parent="1" vertex="1">
          <mxGeometry x="332.5" y="250" width="105" height="60" as="geometry" />
        </mxCell>
        <mxCell id="TztJXBnF4DbwRnY7P1fa-4" value="" style="endArrow=none;html=1;rounded=0;exitX=0.5;exitY=0;exitDx=0;exitDy=0;entryX=0.5;entryY=1;entryDx=0;entryDy=0;" parent="1" source="TztJXBnF4DbwRnY7P1fa-1" target="BCBaqyGgsaxiyXWX2teA-20" edge="1">
          <mxGeometry width="50" height="50" relative="1" as="geometry">
            <mxPoint x="390" y="420" as="sourcePoint" />
            <mxPoint x="440" y="370" as="targetPoint" />
          </mxGeometry>
        </mxCell>
        <mxCell id="TztJXBnF4DbwRnY7P1fa-5" value="" style="endArrow=none;html=1;rounded=0;exitX=0.5;exitY=0;exitDx=0;exitDy=0;entryX=0.5;entryY=1;entryDx=0;entryDy=0;" parent="1" edge="1">
          <mxGeometry width="50" height="50" relative="1" as="geometry">
            <mxPoint x="384.5" y="340" as="sourcePoint" />
            <mxPoint x="384.5" y="310" as="targetPoint" />
          </mxGeometry>
        </mxCell>
      </root>
    </mxGraphModel>
  </diagram>
</mxfile>
